<mxfile host="app.diagrams.net" modified="2024-03-14T12:35:31.795Z" agent="Mozilla/5.0 (Macintosh; Intel Mac OS X 10_15_7) AppleWebKit/537.36 (KHTML, like Gecko) Chrome/122.0.0.0 Safari/537.36" etag="swyBzx7E9W1-e1T418xx" version="24.0.6" type="github">
  <diagram name="Page-1" id="e7l5NAIDdgF0fvydmfBQ">
    <mxGraphModel dx="1953" dy="1073" grid="0" gridSize="10" guides="1" tooltips="1" connect="1" arrows="1" fold="1" page="0" pageScale="1" pageWidth="850" pageHeight="1100" math="0" shadow="0">
      <root>
        <mxCell id="0" />
        <mxCell id="1" parent="0" />
        <mxCell id="s0HVV7xXB6eCspoIpS_d-13" style="edgeStyle=orthogonalEdgeStyle;rounded=0;orthogonalLoop=1;jettySize=auto;html=1;entryX=0.5;entryY=0;entryDx=0;entryDy=0;" parent="1" source="s0HVV7xXB6eCspoIpS_d-3" edge="1">
          <mxGeometry relative="1" as="geometry">
            <mxPoint x="400" y="530" as="targetPoint" />
          </mxGeometry>
        </mxCell>
        <mxCell id="s0HVV7xXB6eCspoIpS_d-3" value="geohash6粒度&lt;div&gt;聚合点位&lt;/div&gt;" style="rounded=1;whiteSpace=wrap;html=1;fillColor=#fff2cc;strokeColor=#d6b656;" parent="1" vertex="1">
          <mxGeometry x="360" y="460" width="80" height="30" as="geometry" />
        </mxCell>
        <mxCell id="s0HVV7xXB6eCspoIpS_d-8" style="edgeStyle=orthogonalEdgeStyle;rounded=0;orthogonalLoop=1;jettySize=auto;html=1;entryX=0.5;entryY=0;entryDx=0;entryDy=0;" parent="1" source="s0HVV7xXB6eCspoIpS_d-4" target="s0HVV7xXB6eCspoIpS_d-6" edge="1">
          <mxGeometry relative="1" as="geometry" />
        </mxCell>
        <mxCell id="s0HVV7xXB6eCspoIpS_d-19" value="供需池灰度城市" style="edgeLabel;html=1;align=center;verticalAlign=middle;resizable=0;points=[];" parent="s0HVV7xXB6eCspoIpS_d-8" vertex="1" connectable="0">
          <mxGeometry x="0.1884" y="-2" relative="1" as="geometry">
            <mxPoint x="-6" y="27" as="offset" />
          </mxGeometry>
        </mxCell>
        <mxCell id="s0HVV7xXB6eCspoIpS_d-9" style="edgeStyle=orthogonalEdgeStyle;rounded=0;orthogonalLoop=1;jettySize=auto;html=1;entryX=0.5;entryY=0;entryDx=0;entryDy=0;" parent="1" source="s0HVV7xXB6eCspoIpS_d-4" target="s0HVV7xXB6eCspoIpS_d-7" edge="1">
          <mxGeometry relative="1" as="geometry">
            <Array as="points">
              <mxPoint x="400" y="260" />
              <mxPoint x="465" y="260" />
            </Array>
          </mxGeometry>
        </mxCell>
        <mxCell id="s0HVV7xXB6eCspoIpS_d-21" value="星级改造灰度城市" style="edgeLabel;html=1;align=center;verticalAlign=middle;resizable=0;points=[];" parent="s0HVV7xXB6eCspoIpS_d-9" vertex="1" connectable="0">
          <mxGeometry x="-0.0491" y="2" relative="1" as="geometry">
            <mxPoint x="39" y="27" as="offset" />
          </mxGeometry>
        </mxCell>
        <mxCell id="s0HVV7xXB6eCspoIpS_d-4" value="job触发层&lt;div&gt;全国城市&lt;/div&gt;" style="rhombus;whiteSpace=wrap;html=1;" parent="1" vertex="1">
          <mxGeometry x="360" y="130" width="80" height="60" as="geometry" />
        </mxCell>
        <mxCell id="s0HVV7xXB6eCspoIpS_d-10" style="edgeStyle=orthogonalEdgeStyle;rounded=0;orthogonalLoop=1;jettySize=auto;html=1;entryX=0.5;entryY=0;entryDx=0;entryDy=0;" parent="1" source="s0HVV7xXB6eCspoIpS_d-6" target="s0HVV7xXB6eCspoIpS_d-3" edge="1">
          <mxGeometry relative="1" as="geometry" />
        </mxCell>
        <mxCell id="BdAMOgpZT7fb4fQjEPyR-3" value="打供需标" style="edgeLabel;html=1;align=center;verticalAlign=middle;resizable=0;points=[];" parent="s0HVV7xXB6eCspoIpS_d-10" vertex="1" connectable="0">
          <mxGeometry x="-0.789" y="-3" relative="1" as="geometry">
            <mxPoint x="3" y="2" as="offset" />
          </mxGeometry>
        </mxCell>
        <mxCell id="s0HVV7xXB6eCspoIpS_d-6" value="es召回geohash6点位集合" style="rounded=1;whiteSpace=wrap;html=1;" parent="1" vertex="1">
          <mxGeometry x="280" y="330" width="80" height="60" as="geometry" />
        </mxCell>
        <mxCell id="s0HVV7xXB6eCspoIpS_d-11" style="edgeStyle=orthogonalEdgeStyle;rounded=0;orthogonalLoop=1;jettySize=auto;html=1;entryX=0.5;entryY=0;entryDx=0;entryDy=0;" parent="1" source="s0HVV7xXB6eCspoIpS_d-7" target="s0HVV7xXB6eCspoIpS_d-3" edge="1">
          <mxGeometry relative="1" as="geometry" />
        </mxCell>
        <mxCell id="BdAMOgpZT7fb4fQjEPyR-2" value="打星级标" style="edgeLabel;html=1;align=center;verticalAlign=middle;resizable=0;points=[];" parent="s0HVV7xXB6eCspoIpS_d-11" vertex="1" connectable="0">
          <mxGeometry x="-0.702" y="-1" relative="1" as="geometry">
            <mxPoint as="offset" />
          </mxGeometry>
        </mxCell>
        <mxCell id="s0HVV7xXB6eCspoIpS_d-7" value="特征召回geohash6点位集合" style="rounded=1;whiteSpace=wrap;html=1;fillColor=#fff2cc;strokeColor=#d6b656;" parent="1" vertex="1">
          <mxGeometry x="425" y="330" width="80" height="60" as="geometry" />
        </mxCell>
        <mxCell id="HFO4WIton9UleLkXOm0G-6" style="edgeStyle=orthogonalEdgeStyle;rounded=0;orthogonalLoop=1;jettySize=auto;html=1;entryX=0.5;entryY=0;entryDx=0;entryDy=0;" parent="1" source="s0HVV7xXB6eCspoIpS_d-14" target="HFO4WIton9UleLkXOm0G-1" edge="1">
          <mxGeometry relative="1" as="geometry" />
        </mxCell>
        <mxCell id="s0HVV7xXB6eCspoIpS_d-14" value="供需决策流" style="rounded=1;whiteSpace=wrap;html=1;" parent="1" vertex="1">
          <mxGeometry x="280" y="710" width="80" height="60" as="geometry" />
        </mxCell>
        <mxCell id="HFO4WIton9UleLkXOm0G-9" style="edgeStyle=orthogonalEdgeStyle;rounded=0;orthogonalLoop=1;jettySize=auto;html=1;" parent="1" source="s0HVV7xXB6eCspoIpS_d-15" target="HFO4WIton9UleLkXOm0G-3" edge="1">
          <mxGeometry relative="1" as="geometry" />
        </mxCell>
        <mxCell id="s0HVV7xXB6eCspoIpS_d-15" value="进行中任务详情召回" style="rounded=1;whiteSpace=wrap;html=1;fillColor=#fff2cc;strokeColor=#d6b656;" parent="1" vertex="1">
          <mxGeometry x="450" y="710" width="80" height="60" as="geometry" />
        </mxCell>
        <mxCell id="s0HVV7xXB6eCspoIpS_d-17" style="edgeStyle=orthogonalEdgeStyle;rounded=0;orthogonalLoop=1;jettySize=auto;html=1;entryX=0.5;entryY=0;entryDx=0;entryDy=0;" parent="1" source="s0HVV7xXB6eCspoIpS_d-16" target="s0HVV7xXB6eCspoIpS_d-14" edge="1">
          <mxGeometry relative="1" as="geometry" />
        </mxCell>
        <mxCell id="BdAMOgpZT7fb4fQjEPyR-6" value="供需标" style="edgeLabel;html=1;align=center;verticalAlign=middle;resizable=0;points=[];" parent="s0HVV7xXB6eCspoIpS_d-17" vertex="1" connectable="0">
          <mxGeometry x="0.1176" y="1" relative="1" as="geometry">
            <mxPoint as="offset" />
          </mxGeometry>
        </mxCell>
        <mxCell id="s0HVV7xXB6eCspoIpS_d-18" style="edgeStyle=orthogonalEdgeStyle;rounded=0;orthogonalLoop=1;jettySize=auto;html=1;" parent="1" source="s0HVV7xXB6eCspoIpS_d-16" target="s0HVV7xXB6eCspoIpS_d-15" edge="1">
          <mxGeometry relative="1" as="geometry">
            <Array as="points">
              <mxPoint x="400" y="660" />
              <mxPoint x="490" y="660" />
            </Array>
          </mxGeometry>
        </mxCell>
        <mxCell id="BdAMOgpZT7fb4fQjEPyR-5" value="星级标" style="edgeLabel;html=1;align=center;verticalAlign=middle;resizable=0;points=[];" parent="s0HVV7xXB6eCspoIpS_d-18" vertex="1" connectable="0">
          <mxGeometry x="0.1959" y="-1" relative="1" as="geometry">
            <mxPoint as="offset" />
          </mxGeometry>
        </mxCell>
        <mxCell id="s0HVV7xXB6eCspoIpS_d-16" value="召回点位详情" style="rhombus;whiteSpace=wrap;html=1;fillColor=#fff2cc;strokeColor=#d6b656;" parent="1" vertex="1">
          <mxGeometry x="360" y="530" width="80" height="80" as="geometry" />
        </mxCell>
        <mxCell id="BdAMOgpZT7fb4fQjEPyR-7" value="" style="endArrow=none;dashed=1;html=1;dashPattern=1 3;strokeWidth=2;rounded=0;" parent="1" edge="1">
          <mxGeometry width="50" height="50" relative="1" as="geometry">
            <mxPoint x="222.5" y="510" as="sourcePoint" />
            <mxPoint x="820" y="510" as="targetPoint" />
          </mxGeometry>
        </mxCell>
        <mxCell id="BdAMOgpZT7fb4fQjEPyR-8" value="callback" style="whiteSpace=wrap;html=1;" parent="1" vertex="1">
          <mxGeometry x="690" y="450" width="120" height="50" as="geometry" />
        </mxCell>
        <mxCell id="BdAMOgpZT7fb4fQjEPyR-9" value="faas" style="whiteSpace=wrap;html=1;" parent="1" vertex="1">
          <mxGeometry x="690" y="525" width="120" height="50" as="geometry" />
        </mxCell>
        <mxCell id="HFO4WIton9UleLkXOm0G-7" style="edgeStyle=orthogonalEdgeStyle;rounded=0;orthogonalLoop=1;jettySize=auto;html=1;" parent="1" source="HFO4WIton9UleLkXOm0G-1" target="HFO4WIton9UleLkXOm0G-2" edge="1">
          <mxGeometry relative="1" as="geometry" />
        </mxCell>
        <mxCell id="HFO4WIton9UleLkXOm0G-1" value="策略处理" style="rounded=1;whiteSpace=wrap;html=1;" parent="1" vertex="1">
          <mxGeometry x="280" y="800" width="80" height="60" as="geometry" />
        </mxCell>
        <mxCell id="HFO4WIton9UleLkXOm0G-8" style="edgeStyle=orthogonalEdgeStyle;rounded=0;orthogonalLoop=1;jettySize=auto;html=1;entryX=0.5;entryY=0;entryDx=0;entryDy=0;" parent="1" source="HFO4WIton9UleLkXOm0G-2" target="HFO4WIton9UleLkXOm0G-5" edge="1">
          <mxGeometry relative="1" as="geometry" />
        </mxCell>
        <mxCell id="HFO4WIton9UleLkXOm0G-2" value="策略模型" style="rounded=1;whiteSpace=wrap;html=1;" parent="1" vertex="1">
          <mxGeometry x="280" y="900" width="80" height="60" as="geometry" />
        </mxCell>
        <mxCell id="HFO4WIton9UleLkXOm0G-10" style="edgeStyle=orthogonalEdgeStyle;rounded=0;orthogonalLoop=1;jettySize=auto;html=1;" parent="1" source="HFO4WIton9UleLkXOm0G-3" target="HFO4WIton9UleLkXOm0G-4" edge="1">
          <mxGeometry relative="1" as="geometry" />
        </mxCell>
        <mxCell id="HFO4WIton9UleLkXOm0G-3" value="星级决策流" style="rounded=1;whiteSpace=wrap;html=1;fillColor=#fff2cc;strokeColor=#d6b656;" parent="1" vertex="1">
          <mxGeometry x="450" y="800" width="80" height="60" as="geometry" />
        </mxCell>
        <mxCell id="ymssTUD9Z1dYAocNSXX6-4" style="edgeStyle=orthogonalEdgeStyle;rounded=0;orthogonalLoop=1;jettySize=auto;html=1;entryX=0.5;entryY=0;entryDx=0;entryDy=0;" parent="1" source="HFO4WIton9UleLkXOm0G-4" target="ymssTUD9Z1dYAocNSXX6-2" edge="1">
          <mxGeometry relative="1" as="geometry" />
        </mxCell>
        <mxCell id="HFO4WIton9UleLkXOm0G-4" value="tag持久化" style="rounded=1;whiteSpace=wrap;html=1;fillColor=#fff2cc;strokeColor=#d6b656;" parent="1" vertex="1">
          <mxGeometry x="450" y="900" width="80" height="60" as="geometry" />
        </mxCell>
        <mxCell id="ymssTUD9Z1dYAocNSXX6-3" style="edgeStyle=orthogonalEdgeStyle;rounded=0;orthogonalLoop=1;jettySize=auto;html=1;entryX=0.5;entryY=0;entryDx=0;entryDy=0;" parent="1" source="HFO4WIton9UleLkXOm0G-5" target="ymssTUD9Z1dYAocNSXX6-2" edge="1">
          <mxGeometry relative="1" as="geometry" />
        </mxCell>
        <mxCell id="HFO4WIton9UleLkXOm0G-5" value="供需持久化" style="rounded=1;whiteSpace=wrap;html=1;" parent="1" vertex="1">
          <mxGeometry x="280" y="990" width="80" height="60" as="geometry" />
        </mxCell>
        <mxCell id="HFO4WIton9UleLkXOm0G-12" value="" style="shape=flexArrow;endArrow=classic;html=1;rounded=0;entryX=0;entryY=0.5;entryDx=0;entryDy=0;" parent="1" edge="1">
          <mxGeometry width="50" height="50" relative="1" as="geometry">
            <mxPoint x="260" y="569.5" as="sourcePoint" />
            <mxPoint x="350" y="569.87" as="targetPoint" />
          </mxGeometry>
        </mxCell>
        <mxCell id="HFO4WIton9UleLkXOm0G-14" value="pipeline并行化改造" style="rounded=1;whiteSpace=wrap;html=1;fillColor=#f8cecc;strokeColor=#b85450;" parent="1" vertex="1">
          <mxGeometry x="120" y="540" width="120" height="60" as="geometry" />
        </mxCell>
        <mxCell id="ymssTUD9Z1dYAocNSXX6-6" style="edgeStyle=orthogonalEdgeStyle;rounded=0;orthogonalLoop=1;jettySize=auto;html=1;entryX=0.5;entryY=0;entryDx=0;entryDy=0;" parent="1" source="ymssTUD9Z1dYAocNSXX6-2" target="ymssTUD9Z1dYAocNSXX6-5" edge="1">
          <mxGeometry relative="1" as="geometry" />
        </mxCell>
        <mxCell id="ymssTUD9Z1dYAocNSXX6-2" value="点位粒度聚合" style="rounded=1;whiteSpace=wrap;html=1;fillColor=#fff2cc;strokeColor=#d6b656;" parent="1" vertex="1">
          <mxGeometry x="360" y="1100" width="80" height="30" as="geometry" />
        </mxCell>
        <mxCell id="ymssTUD9Z1dYAocNSXX6-5" value="供需池持久化" style="rounded=1;whiteSpace=wrap;html=1;fillColor=#fff2cc;strokeColor=#d6b656;" parent="1" vertex="1">
          <mxGeometry x="360" y="1170" width="80" height="30" as="geometry" />
        </mxCell>
        <mxCell id="ymssTUD9Z1dYAocNSXX6-7" value="" style="shape=flexArrow;endArrow=classic;html=1;rounded=0;entryX=0;entryY=0.5;entryDx=0;entryDy=0;" parent="1" edge="1">
          <mxGeometry width="50" height="50" relative="1" as="geometry">
            <mxPoint x="240" y="1109.5" as="sourcePoint" />
            <mxPoint x="330" y="1109.87" as="targetPoint" />
          </mxGeometry>
        </mxCell>
        <mxCell id="ymssTUD9Z1dYAocNSXX6-8" value="pipeline并行化改造" style="rounded=1;whiteSpace=wrap;html=1;fillColor=#f8cecc;strokeColor=#b85450;" parent="1" vertex="1">
          <mxGeometry x="100" y="1080" width="120" height="60" as="geometry" />
        </mxCell>
      </root>
    </mxGraphModel>
  </diagram>
</mxfile>
